<svg width="138" height="27" viewBox="0 0 138 27" fill="none" xmlns="http://www.w3.org/2000/svg">
<path d="M0.832675 26.574C0.792057 26.1142 0.683741 25.5192 0.507729 24.7889C0.331716 24.0451 0.162473 23.45 0 23.0038L7.23006 13.7536L9.50468 12.0699C8.89541 12.0699 8.34029 12.1037 7.83933 12.1713C7.35191 12.2254 6.93896 12.293 6.60047 12.3742C6.26199 12.4553 5.95058 12.5838 5.66625 12.7596C5.38192 12.9219 5.16529 13.0639 5.01636 13.1856C4.86742 13.2938 4.71849 13.4628 4.56956 13.6927C4.42062 13.9226 4.31908 14.0984 4.26492 14.2201C4.2243 14.3283 4.1566 14.5109 4.06183 14.7678C3.96705 15.0248 3.90613 15.1938 3.87905 15.275H1.07638V9.33133H14.6632C14.7309 9.79114 14.846 10.3186 15.0085 10.9136C15.1845 11.5086 15.3808 12.0699 15.5974 12.5973L9.56561 21.5229L7.06758 23.3689C8.36737 23.3689 9.38959 23.3148 10.1343 23.2066C11.258 23.0443 11.9892 22.6859 12.3277 22.1315C12.463 21.9151 12.6526 21.3539 12.8963 20.4478H15.2725V26.574H0.832675Z" fill="white"/>
<path d="M26.6416 16.0864C26.6416 14.3689 26.5536 13.1518 26.3776 12.435C26.2016 11.7183 25.8767 11.3599 25.4028 11.3599C24.9966 11.3599 24.6649 11.4343 24.4076 11.583C24.1504 11.7183 23.9608 11.9414 23.839 12.2524C23.7171 12.55 23.6359 12.861 23.5953 13.1856C23.5682 13.4966 23.5546 13.8956 23.5546 14.3824V16.0864H26.6416ZM25.0169 27C23.5005 27 22.1804 26.7701 21.0566 26.3103C19.9464 25.8505 19.0663 25.2081 18.4164 24.3832C17.7801 23.5582 17.313 22.6319 17.0151 21.6041C16.7172 20.5627 16.5683 19.4065 16.5683 18.1352C16.5683 15.1059 17.34 12.8137 18.8835 11.2585C20.427 9.70323 22.5866 8.92562 25.3622 8.92562C28.0294 8.92562 29.9385 9.55447 31.0893 10.8122C32.2402 12.0563 32.8156 14.0646 32.8156 16.837V19.0887H23.5343V19.4741C23.5343 20.272 23.6156 20.9279 23.778 21.4418C23.9541 21.9557 24.2045 22.3343 24.5295 22.5778C24.8544 22.8212 25.1861 22.9835 25.5246 23.0646C25.8631 23.1458 26.2761 23.1863 26.7635 23.1863C27.2374 23.1863 27.7451 23.1255 28.2867 23.0038C28.8418 22.882 29.3969 22.6927 29.952 22.4358C30.5207 22.1788 30.9946 21.8745 31.3737 21.5229L32.5719 23.5718C32.0709 24.3832 31.333 25.0661 30.3582 25.6206C29.3969 26.1615 28.4695 26.5267 27.5759 26.716C26.6822 26.9053 25.8293 27 25.0169 27Z" fill="white"/>
<path d="M41.5755 26.574H35.0157V13.4493L33.7971 12.6987V10.5282L38.1636 9.33133H41.6161V11.9482L41.8598 11.6439C42.0223 11.4275 42.2593 11.1705 42.5707 10.873C42.8956 10.5755 43.2544 10.2847 43.647 10.0008C44.0397 9.70323 44.5068 9.45304 45.0484 9.25019C45.6035 9.03381 46.1451 8.92562 46.6731 8.92562C48.528 8.92562 49.8346 9.43276 50.5928 10.447C51.3645 11.4613 51.7504 13.1585 51.7504 15.5387C51.7504 15.6198 51.7504 15.7415 51.7504 15.9038C51.7369 16.0661 51.7301 16.1946 51.7301 16.2893V26.574H45.0281V15.701C45.0687 14.4298 44.5271 13.7941 43.4033 13.7941C43.3221 13.7941 43.2409 13.8009 43.1596 13.8144C43.0919 13.8279 43.0242 13.8415 42.9565 13.855C42.9024 13.8685 42.8347 13.8956 42.7534 13.9361C42.6857 13.9632 42.6248 13.9902 42.5707 14.0173C42.5165 14.0308 42.4556 14.0646 42.3879 14.1187C42.3202 14.1593 42.266 14.1931 42.2254 14.2201C42.1848 14.2472 42.1239 14.2945 42.0426 14.3621C41.9749 14.4162 41.9208 14.4568 41.8802 14.4838C41.8531 14.5109 41.7989 14.5582 41.7177 14.6258C41.65 14.6799 41.6026 14.7205 41.5755 14.7476V26.574Z" fill="white"/>
<path d="M59.6348 27C58.3621 27 57.0758 26.7904 55.776 26.3711C54.4763 25.9384 53.6436 25.5192 53.278 25.1134L53.8061 21.8475C54.2664 22.2938 55.0314 22.6792 56.101 23.0038C57.1842 23.3283 58.2876 23.4906 59.4114 23.4906C60.2238 23.4906 60.7789 23.3892 61.0767 23.1863C61.3881 22.9835 61.5438 22.6995 61.5438 22.3343C61.5438 21.9827 61.2731 21.6717 60.7315 21.4012C60.1899 21.1172 59.3098 20.7926 58.0913 20.4275C54.9366 19.4808 53.3593 17.5199 53.3593 14.5447C53.3593 13.3276 53.7113 12.2863 54.4153 11.4207C55.1194 10.5417 56.0198 9.90609 57.1165 9.5139C58.2131 9.12171 59.4385 8.92562 60.7924 8.92562C63.1077 8.92562 64.8136 9.35162 65.9103 10.2036C66.154 10.4335 66.2759 10.5485 66.2759 10.5485L65.3823 13.4493C64.4887 12.5702 63.2566 12.1307 61.686 12.1307C60.3998 12.1307 59.7566 12.5094 59.7566 13.2667C59.7566 13.4831 59.804 13.6657 59.8988 13.8144C59.9936 13.9497 60.1493 14.0714 60.3659 14.1796C60.5961 14.2742 60.8195 14.3554 61.0361 14.423C61.2527 14.4771 61.5574 14.5582 61.95 14.6664C62.3427 14.7611 62.6812 14.849 62.9655 14.9301C64.5496 15.4576 65.7005 16.2014 66.418 17.1615C67.1356 18.1217 67.4944 19.3186 67.4944 20.7521C67.4944 24.9174 64.8745 27 59.6348 27Z" fill="white"/>
<path d="M82.8147 24.8903L82.6319 25.1134C82.51 25.2487 82.2934 25.4245 81.982 25.6409C81.6841 25.8437 81.3186 26.0533 80.8853 26.2697C80.4656 26.4726 79.8969 26.6416 79.1793 26.7769C78.4753 26.9256 77.7171 27 76.9047 27C74.1562 27 72.0508 26.1953 70.5886 24.586C69.1398 22.9767 68.4155 20.8467 68.4155 18.1961C68.4155 16.7626 68.6389 15.4576 69.0857 14.281C69.5325 13.1044 70.1418 12.1307 70.9135 11.3599C71.6988 10.5755 72.6127 9.9737 73.6552 9.55447C74.7113 9.12171 75.8486 8.90533 77.0672 8.90533C79.423 8.90533 81.2509 9.46657 82.5506 10.589C82.835 10.873 82.9771 11.015 82.9771 11.015L82.6725 15.7821L79.7886 15.8024L78.631 12.6987C78.5227 12.6717 78.3737 12.6582 78.1842 12.6582C76.9521 12.6582 76.0991 13.0841 75.6252 13.9361C75.1649 14.7746 74.9347 16.2352 74.9347 18.3178C74.9347 19.2239 75.0092 20.0015 75.1581 20.6506C75.307 21.2863 75.4763 21.7663 75.6658 22.0909C75.8554 22.402 76.1059 22.6454 76.4173 22.8212C76.7422 22.997 77.0062 23.0984 77.2093 23.1255C77.4124 23.1525 77.6629 23.166 77.9608 23.166C78.6377 23.166 79.3283 23.0849 80.0323 22.9226C80.7499 22.7603 81.3389 22.4966 81.7992 22.1315L82.8147 24.8903Z" fill="white"/>
<path d="M91.291 26.574H84.7109V3.6311L83.4923 2.90083V1.01428L90.0116 0H91.3317V11.9482L91.5754 11.6439C91.7378 11.4275 91.9748 11.1705 92.2862 10.873C92.6111 10.5755 92.9699 10.2847 93.3626 10.0008C93.7552 9.70323 94.2223 9.45304 94.7639 9.25019C95.319 9.03381 95.8606 8.92562 96.3886 8.92562C98.2435 8.92562 99.5501 9.43276 100.308 10.447C101.08 11.4613 101.466 13.1585 101.466 15.5387C101.466 15.6198 101.466 15.7415 101.466 15.9038C101.452 16.0661 101.446 16.1946 101.446 16.2893V26.574H94.7436V15.701C94.7842 14.4298 94.2426 13.7941 93.1189 13.7941C93.0105 13.7941 92.9022 13.8009 92.7939 13.8144C92.6991 13.8279 92.5976 13.8618 92.4893 13.9159C92.381 13.9699 92.293 14.0105 92.2253 14.0376C92.1711 14.0646 92.0831 14.1187 91.9612 14.1998C91.8529 14.281 91.7785 14.3351 91.7378 14.3621C91.7108 14.3892 91.6295 14.4568 91.4941 14.565C91.3723 14.6732 91.3046 14.734 91.291 14.7476V26.574Z" fill="white"/>
<path d="M113.094 16.0864C113.094 14.3689 113.006 13.1518 112.83 12.435C112.654 11.7183 112.329 11.3599 111.855 11.3599C111.449 11.3599 111.118 11.4343 110.86 11.583C110.603 11.7183 110.414 11.9414 110.292 12.2524C110.17 12.55 110.089 12.861 110.048 13.1856C110.021 13.4966 110.007 13.8956 110.007 14.3824V16.0864H113.094ZM111.47 27C109.953 27 108.633 26.7701 107.509 26.3103C106.399 25.8505 105.519 25.2081 104.869 24.3832C104.233 23.5582 103.766 22.6319 103.468 21.6041C103.17 20.5627 103.021 19.4065 103.021 18.1352C103.021 15.1059 103.793 12.8137 105.336 11.2585C106.88 9.70323 109.039 8.92562 111.815 8.92562C114.482 8.92562 116.391 9.55447 117.542 10.8122C118.693 12.0563 119.268 14.0646 119.268 16.837V19.0887H109.987V19.4741C109.987 20.272 110.068 20.9279 110.231 21.4418C110.407 21.9557 110.657 22.3343 110.982 22.5778C111.307 22.8212 111.639 22.9835 111.977 23.0646C112.316 23.1458 112.729 23.1863 113.216 23.1863C113.69 23.1863 114.198 23.1255 114.739 23.0038C115.294 22.882 115.85 22.6927 116.405 22.4358C116.973 22.1788 117.447 21.8745 117.826 21.5229L119.025 23.5718C118.524 24.3832 117.786 25.0661 116.811 25.6206C115.85 26.1615 114.922 26.5267 114.029 26.716C113.135 26.9053 112.282 27 111.47 27Z" fill="white"/>
<path d="M132.821 26.574L132.029 23.9572C131.921 24.1465 131.792 24.3358 131.643 24.5252C131.508 24.7145 131.284 24.9579 130.973 25.2554C130.662 25.5394 130.33 25.7896 129.978 26.006C129.626 26.2224 129.186 26.4117 128.658 26.574C128.13 26.7363 127.575 26.8174 126.992 26.8174C124.758 26.8174 123.12 26.0533 122.078 24.5252C121.035 22.997 120.514 20.8738 120.514 18.1555C120.514 16.4515 120.758 14.9369 121.245 13.6116C121.732 12.2727 122.497 11.1976 123.54 10.3862C124.582 9.57476 125.842 9.16905 127.317 9.16905C128.197 9.16905 128.983 9.26371 129.673 9.45304C130.364 9.64237 130.959 9.87228 131.46 10.1427V3.99624L129.226 3.24568V1.01428L136.416 0H138V26.574H132.821ZM129.958 22.8415C130.201 22.8415 130.452 22.8009 130.709 22.7198C130.966 22.6251 131.217 22.4966 131.46 22.3343V12.1307C131.041 12.0361 130.655 11.9887 130.303 11.9887C128.502 12.0023 127.595 13.3884 127.581 16.1473V18.9872C127.581 20.2585 127.805 21.2186 128.252 21.8678C128.698 22.5169 129.267 22.8415 129.958 22.8415Z" fill="white"/>
</svg>
